<?xml version="1.0" standalone="no"?>
<!DOCTYPE svg PUBLIC "-//W3C//DTD SVG 20010904//EN"
 "http://www.w3.org/TR/2001/REC-SVG-20010904/DTD/svg10.dtd">
<svg version="1.0" xmlns="http://www.w3.org/2000/svg"
 width="736.000000pt" height="736.000000pt" viewBox="0 0 736.000000 736.000000"
 preserveAspectRatio="xMidYMid meet">

<g transform="translate(0.000000,736.000000) scale(0.100000,-0.100000)"
fill="#000000" stroke="none">
<path d="M5075 6650 c-113 -17 -211 -73 -297 -168 -72 -80 -108 -182 -108
-308 0 -190 99 -349 265 -429 141 -68 282 -68 421 0 329 161 361 626 57 828
-93 62 -229 93 -338 77z"/>
<path d="M2872 5980 c-21 -36 -35 -40 -22 -5 8 21 3 18 -30 -16 -21 -22 -43
-38 -48 -35 -5 3 -22 -8 -37 -24 -41 -42 -58 -40 -39 5 17 42 11 46 -11 8
l-16 -28 6 30 c4 16 5 28 2 25 -106 -125 -151 -176 -199 -227 -70 -74 -95
-126 -78 -158 10 -18 9 -28 -4 -53 -9 -18 -16 -55 -16 -86 0 -61 47 -236 77
-288 30 -52 131 -113 243 -148 65 -20 103 -37 110 -50 5 -10 8 -42 5 -71 -2
-35 0 -56 8 -61 7 -4 49 -8 94 -8 71 0 92 5 167 36 101 42 142 82 150 146 11
88 13 92 15 32 1 -48 -5 -72 -26 -115 -26 -51 -32 -56 -108 -89 -75 -33 -86
-35 -186 -35 -83 1 -112 4 -132 18 -27 17 -36 50 -17 62 6 3 10 12 10 20 0 10
-16 6 -60 -13 -58 -26 -60 -28 -60 -64 0 -27 -10 -52 -35 -86 -30 -43 -42 -51
-97 -66 -35 -10 -78 -26 -95 -37 l-33 -20 35 -69 c27 -54 39 -97 54 -192 36
-231 44 -295 39 -322 -4 -22 0 -30 21 -43 120 -73 206 -138 289 -216 53 -51
133 -121 177 -155 44 -34 102 -81 129 -103 28 -22 115 -79 195 -126 80 -48
151 -90 156 -96 10 -9 -184 90 -350 179 -98 52 -269 172 -350 246 -72 66 -186
130 -143 81 8 -10 33 -49 54 -88 62 -113 101 -165 201 -262 81 -79 102 -94
151 -108 31 -10 82 -32 112 -50 33 -20 75 -35 105 -39 46 -6 175 -58 175 -71
0 -3 -18 4 -41 15 -22 12 -76 27 -119 35 -43 8 -105 28 -140 45 -75 38 -96 35
-53 -9 26 -25 31 -36 24 -54 -4 -12 -6 -27 -4 -33 2 -6 -9 -16 -23 -23 -18 -8
-24 -15 -17 -22 30 -30 251 -86 493 -124 58 -9 150 -26 205 -37 142 -29 190
-28 241 5 47 29 54 41 44 77 -4 15 5 78 23 158 l29 133 -45 47 c-93 96 -177
178 -218 212 -23 19 -46 47 -51 63 -6 15 -31 41 -57 59 -25 17 -50 36 -56 42
-5 6 -30 24 -55 40 -66 42 -220 159 -215 164 6 7 210 -94 262 -129 26 -18 127
-111 224 -206 97 -95 180 -173 184 -173 4 0 2 7 -6 16 -13 15 -15 88 -4 174 2
25 2 59 -3 75 -9 36 -142 163 -228 217 -86 54 -447 218 -479 218 -14 0 -111
37 -124 47 -30 23 124 -9 244 -50 209 -73 330 -133 470 -235 61 -44 111 -79
112 -78 0 0 -5 37 -13 81 -8 44 -12 97 -8 117 4 29 1 46 -15 72 -12 18 -21 42
-21 53 0 11 -12 30 -26 44 -14 13 -36 47 -49 74 -36 80 -64 97 -243 145 -57
16 -106 31 -110 35 -16 17 216 -27 292 -56 43 -16 58 -29 95 -81 l43 -63 -6
55 c-4 36 -19 82 -46 132 -22 42 -40 84 -40 93 0 21 30 31 41 14 16 -24 -2
193 -19 226 -8 17 -55 73 -105 125 -107 113 -126 142 -164 246 -27 76 -28 78
-33 44 -5 -34 -7 -35 -57 -41 -29 -4 -59 -9 -68 -12 -8 -4 -40 -2 -72 3 -44 8
-60 7 -72 -4 -9 -8 -32 -18 -51 -24 -19 -5 -43 -13 -52 -17 -34 -14 -18 14 18
31 46 22 60 56 39 97 -8 16 -15 38 -15 48 0 10 -4 20 -10 24 -5 3 -9 18 -9 33
1 59 -8 96 -29 113 -19 14 -21 22 -12 44 17 44 12 52 -35 64 -28 7 -45 17 -45
26 0 8 -4 15 -9 15 -5 0 -15 16 -21 35 -6 19 -31 54 -56 77 -30 29 -44 51 -44
69 0 18 -12 37 -35 58 -30 26 -33 31 -15 31 11 0 20 5 20 10 0 6 -12 10 -26
10 -25 0 -25 2 -19 42 7 39 6 41 -9 29 -14 -12 -16 -11 -16 8 0 11 -4 21 -10
21 -5 0 -10 10 -10 23 -1 21 -2 20 -16 -5 -8 -16 -19 -28 -24 -28 -12 0 -12 3
0 34 13 35 3 33 -18 -4z m-232 -637 c-21 -8 -30 -24 -30 -54 0 -42 59 -81 142
-93 44 -7 48 -5 62 21 9 17 15 22 16 12 1 -69 -156 -55 -223 19 -16 17 -17 26
-7 61 9 33 15 41 33 40 15 0 17 -2 7 -6z m30 -1316 c36 -23 127 -94 203 -157
76 -63 160 -128 188 -145 180 -109 238 -141 349 -198 178 -90 294 -171 370
-258 101 -117 101 -119 -5 -20 -106 98 -160 133 -345 226 -190 95 -468 267
-560 346 -145 125 -280 249 -272 249 4 0 37 -19 72 -43z"/>
<path d="M3710 5140 c1 -29 47 -128 81 -171 19 -24 57 -66 86 -94 28 -27 65
-72 82 -99 26 -42 31 -60 32 -115 0 -37 4 -75 9 -86 l9 -20 1 20 c1 28 64 55
130 55 l53 0 -6 -34 c-3 -19 -17 -52 -31 -75 -15 -23 -23 -41 -18 -41 13 0 89
122 128 206 35 75 37 86 45 227 6 105 5 155 -3 173 -11 24 -12 25 -112 19 -56
-3 -132 -11 -170 -17 -38 -5 -89 -8 -115 -4 -25 3 -64 1 -85 -4 -48 -11 -70
-1 -96 43 -11 18 -20 25 -20 17z"/>
<path d="M1966 4964 c-3 -9 -6 -49 -6 -89 0 -40 -3 -80 -6 -89 -11 -29 -45
-16 -103 39 -94 89 -123 69 -46 -31 25 -31 45 -67 45 -78 0 -11 -12 -37 -26
-58 l-26 -37 18 -38 c25 -51 97 -89 140 -73 16 6 34 18 41 27 10 12 16 13 26
4 8 -6 41 -14 73 -17 47 -5 70 -2 112 15 31 12 75 21 108 21 47 0 59 4 80 27
14 15 23 34 22 42 -4 23 -63 26 -115 6 -37 -14 -49 -15 -74 -5 -53 22 -46 76
20 165 17 22 33 52 37 68 16 67 -74 5 -114 -79 -15 -33 -35 -43 -47 -24 -3 5
13 44 35 86 43 82 48 119 16 119 -13 0 -29 -17 -47 -50 -15 -27 -39 -72 -54
-98 -38 -71 -50 -58 -53 61 -3 100 -3 102 -26 102 -13 0 -27 -7 -30 -16z"/>
<path d="M4345 4960 c-3 -5 -8 -46 -10 -89 -7 -112 -74 -290 -139 -368 -14
-17 -26 -34 -26 -38 0 -17 41 31 69 79 16 28 38 60 50 70 21 19 22 19 88 -4
57 -20 88 -24 207 -25 112 -2 165 -8 259 -29 204 -46 396 -75 582 -88 173 -11
180 -13 201 -37 17 -20 20 -30 12 -44 -5 -10 -7 -21 -5 -24 14 -13 117 214
117 257 0 5 -10 10 -23 10 -31 0 -316 96 -468 158 -210 86 -287 100 -544 106
-131 3 -147 6 -244 40 -116 40 -117 40 -126 26z"/>
<path d="M6005 4614 c-65 -14 -160 -13 -221 2 -18 5 -22 0 -27 -37 -3 -23 -24
-78 -48 -123 l-42 -81 37 33 c21 18 40 31 44 29 78 -40 147 -55 307 -66 127
-8 166 -2 144 25 -6 8 -16 14 -21 14 -6 0 -23 10 -40 21 -27 19 -28 23 -14 37
12 12 18 13 29 3 32 -26 118 -43 186 -35 110 11 123 44 17 44 -64 0 -166 24
-166 39 0 10 82 26 212 42 85 10 121 30 98 53 -18 18 -411 17 -495 0z"/>
<path d="M1755 4564 c-15 -22 -76 -86 -135 -144 -110 -108 -206 -223 -266
-317 -36 -56 -154 -287 -154 -300 0 -8 14 16 114 195 59 106 85 139 41 52 -14
-28 -28 -71 -32 -98 l-6 -47 82 123 c79 120 164 222 183 222 6 0 -10 -22 -34
-48 -57 -65 -119 -156 -175 -260 l-46 -85 27 -24 c15 -12 30 -23 34 -22 4 0
34 55 67 121 33 66 77 139 98 162 l38 41 -41 -61 c-42 -65 -114 -210 -125
-255 -6 -26 -5 -27 48 -33 61 -8 66 -7 229 41 65 18 154 38 200 43 45 5 111
19 146 31 56 19 66 20 73 7 5 -8 18 -26 30 -39 l21 -24 -21 38 c-12 21 -21 44
-21 52 0 8 -21 42 -48 77 -26 35 -76 106 -111 158 -35 52 -65 97 -66 98 -10
11 -75 -22 -81 -41 -4 -12 -29 -67 -56 -123 -68 -139 -148 -227 -228 -249 -14
-3 -2 7 25 24 92 55 180 183 230 334 13 42 47 122 75 176 l49 100 -29 6 c-40
9 -78 41 -93 77 l-13 31 -29 -39z"/>
<path d="M2376 4535 c-10 -15 -58 -45 -119 -75 -56 -27 -128 -70 -161 -94 -32
-25 -85 -54 -117 -66 l-58 -22 31 -47 c18 -25 66 -89 108 -141 41 -53 99 -128
129 -168 57 -75 74 -87 46 -32 -14 27 -15 34 -3 41 26 16 118 30 186 28 38 -1
74 1 80 5 29 18 -11 398 -54 508 -32 84 -46 97 -68 63z"/>
<path d="M4138 4066 c53 -54 91 -103 107 -138 26 -56 36 -64 145 -106 8 -3
-15 26 -51 64 -38 40 -69 82 -73 99 -5 23 -28 46 -100 98 -52 37 -97 67 -102
67 -4 0 29 -38 74 -84z"/>
<path d="M2445 3875 c-47 -18 -88 -53 -45 -39 39 14 199 8 263 -9 31 -8 57
-14 57 -12 0 2 -26 18 -57 35 -69 39 -155 49 -218 25z"/>
<path d="M1258 3775 c-30 -60 -67 -141 -81 -180 -27 -71 -61 -204 -54 -211 2
-2 22 52 44 120 23 69 67 178 98 242 30 65 54 123 52 128 -2 6 -29 -38 -59
-99z"/>
<path d="M2205 3798 c14 -24 25 -50 25 -59 0 -9 17 -29 37 -45 40 -30 40 -30
-25 68 -50 78 -73 100 -37 36z"/>
<path d="M2268 3780 c24 -44 114 -157 96 -120 -12 23 -115 170 -120 170 -2 0
8 -22 24 -50z"/>
<path d="M4185 3800 c-3 -5 0 -10 9 -10 8 0 23 -3 33 -6 16 -5 16 -4 -1 10
-23 19 -32 20 -41 6z"/>
<path d="M1352 3708 c-51 -106 -70 -163 -77 -229 -5 -53 -5 -53 23 31 16 47
45 127 66 178 21 52 35 96 33 99 -3 3 -23 -33 -45 -79z"/>
<path d="M4171 3684 c42 -43 91 -105 109 -137 18 -32 34 -56 36 -54 9 9 -28
107 -50 130 -14 15 -29 33 -33 40 -4 8 -37 33 -73 57 l-65 43 76 -79z"/>
<path d="M2696 3611 c-12 -19 21 -78 66 -114 60 -49 68 -47 17 4 -22 22 -49
59 -59 81 -10 22 -21 35 -24 29z"/>
<path d="M2530 3392 c0 -8 61 -60 101 -85 24 -16 29 -16 70 -2 54 20 149 22
217 6 104 -25 71 -4 -43 27 -108 30 -120 31 -141 17 -35 -23 -84 -18 -147 15
-31 16 -57 26 -57 22z"/>
<path d="M4132 3384 c10 -10 20 -15 24 -12 3 4 -5 12 -18 18 -22 12 -22 12 -6
-6z"/>
<path d="M4213 3273 c37 -38 50 -60 54 -91 3 -26 15 -49 31 -64 15 -14 23 -17
20 -8 -3 8 -13 40 -22 71 -12 45 -25 64 -58 91 -68 55 -77 55 -25 1z"/>
<path d="M2933 3253 c-7 -2 -13 -9 -13 -14 0 -6 5 -7 12 -3 6 4 25 11 42 15
l31 7 -30 0 c-16 0 -36 -2 -42 -5z"/>
<path d="M3055 2990 c-4 -27 -21 -80 -39 -117 -52 -108 -69 -170 -67 -242 0
-42 -5 -79 -15 -103 l-16 -36 43 -78 c52 -92 130 -180 199 -224 63 -40 64 -48
3 -16 -85 43 -128 81 -186 166 l-56 83 -11 -29 c-12 -31 -29 -210 -39 -414 -3
-74 -6 -136 -6 -137 1 -1 50 14 110 33 106 35 114 36 225 31 104 -4 268 -32
257 -44 -3 -2 -40 3 -83 13 -117 25 -272 23 -354 -5 -110 -38 -180 -85 -180
-122 0 -26 23 -24 75 6 139 82 478 68 696 -29 24 -10 29 12 38 154 6 98 13
134 30 168 13 26 24 69 27 110 5 64 9 85 34 179 13 52 2 103 -36 158 -35 52
-22 56 15 4 47 -64 56 -109 35 -182 -9 -34 -20 -102 -24 -152 -4 -54 -14 -103
-25 -124 -18 -35 -50 -330 -37 -342 4 -3 28 -12 53 -19 60 -16 89 2 114 67 17
43 17 48 1 72 -42 64 -49 93 -43 186 10 155 52 281 125 375 39 51 39 48 -5
-37 -74 -141 -114 -372 -76 -442 10 -19 23 -34 28 -33 15 1 52 150 74 297 51
337 49 327 77 356 24 25 27 37 34 141 4 62 14 131 23 154 13 35 13 45 1 73
l-14 33 -34 -21 c-50 -32 -41 -33 -501 50 -60 11 -175 36 -254 55 -79 19 -158
34 -176 34 -32 0 -33 -2 -40 -50z m372 -175 c94 -44 128 -67 233 -164 72 -66
92 -91 108 -134 36 -97 32 -112 -8 -31 -31 65 -55 96 -112 149 -40 38 -90 81
-112 96 -79 58 -214 90 -251 59 -13 -11 -15 -8 -15 18 0 60 38 62 157 7z"/>
<path d="M2690 2745 c0 -9 182 -241 211 -270 7 -7 7 -2 1 15 -28 72 -41 91
-77 120 -22 17 -57 53 -78 78 -51 62 -57 68 -57 57z"/>
<path d="M2818 2453 c6 -2 18 -2 25 0 6 3 1 5 -13 5 -14 0 -19 -2 -12 -5z"/>
<path d="M1723 2430 c-51 -12 -173 -89 -235 -148 -39 -37 -82 -65 -134 -88
-95 -41 -141 -73 -221 -150 -107 -105 -153 -228 -123 -336 16 -57 40 -79 90
-85 40 -4 52 0 110 39 49 33 66 50 70 73 16 77 41 95 143 99 54 2 83 -1 115
-15 23 -11 62 -28 87 -39 71 -31 122 -21 84 17 -6 6 -15 42 -20 80 -5 37 -11
89 -15 114 -6 42 -3 49 26 82 32 37 88 61 118 50 9 -3 36 -15 60 -25 45 -20
82 -18 114 6 16 12 15 21 -13 142 -17 71 -34 136 -38 144 -21 42 -128 62 -218
40z"/>
<path d="M1730 2088 c-12 -13 -28 -36 -37 -52 -13 -26 -13 -34 1 -80 8 -28 17
-64 18 -81 2 -21 12 -35 36 -50 18 -11 53 -35 78 -52 52 -39 64 -41 64 -10 0
32 42 118 79 159 28 32 47 43 105 62 18 6 17 9 -11 39 -17 18 -36 42 -42 54
-10 20 -13 21 -39 7 -37 -19 -62 -18 -122 6 -67 26 -104 26 -130 -2z"/>
<path d="M2061 1954 c-70 -21 -119 -78 -141 -167 l-12 -47 107 -102 c67 -64
128 -133 165 -188 32 -47 80 -111 107 -141 27 -29 71 -81 98 -113 49 -58 197
-176 221 -176 6 0 15 12 18 26 9 34 165 190 244 243 86 58 78 36 -10 -30 -98
-71 -190 -165 -218 -218 -20 -39 -21 -48 -10 -87 12 -40 20 -48 119 -112 58
-37 140 -84 181 -103 66 -30 84 -34 154 -33 73 1 81 3 103 28 31 37 29 56 -16
157 -47 107 -96 181 -178 270 -34 38 -63 72 -63 75 0 2 17 -9 39 -26 83 -67
212 -254 251 -362 6 -18 14 -26 23 -22 26 10 116 130 143 190 15 33 39 87 55
121 16 35 40 111 54 170 14 60 46 165 71 235 26 70 44 134 40 143 -17 46 -193
86 -391 88 -160 2 -240 -12 -285 -50 -29 -24 -30 -28 -29 -106 0 -45 4 -118 8
-162 8 -81 6 -104 -4 -69 -17 54 -54 109 -109 162 -67 65 -130 101 -220 127
-31 9 -90 36 -129 60 -148 87 -253 156 -297 194 -45 38 -46 38 -89 25z"/>
<path d="M1400 1813 c-55 -9 -79 -25 -86 -56 -3 -18 -30 -63 -59 -102 -29 -38
-74 -104 -100 -145 -26 -41 -69 -98 -94 -126 -68 -75 -159 -242 -186 -341 -22
-80 -23 -86 -8 -139 18 -61 46 -84 105 -84 43 0 73 22 99 71 11 22 35 57 53
77 18 20 36 49 40 65 3 15 11 27 16 27 6 0 18 8 28 18 25 24 76 42 151 52 35
5 70 15 79 23 13 13 20 13 55 1 57 -20 61 -18 40 19 -15 25 -19 49 -17 118 2
134 40 197 137 229 45 14 64 6 21 -10 -80 -28 -116 -70 -135 -155 -9 -43 -9
-60 1 -84 l12 -31 89 -1 c49 -1 95 -2 102 -3 8 -1 11 10 9 29 -3 30 21 198 34
243 5 19 3 22 -19 22 -14 0 -28 4 -32 10 -3 5 -11 7 -18 5 -12 -4 -95 89 -130
147 -10 18 -31 44 -46 59 -14 16 -34 37 -43 48 -17 20 -40 24 -98 14z"/>
<path d="M3597 1556 c-50 -134 -129 -387 -123 -393 4 -4 240 376 270 435 9 17
16 37 16 44 0 13 -70 38 -104 38 -8 0 -32 -50 -59 -124z"/>
<path d="M1938 1525 c-65 -6 -121 -15 -125 -18 -10 -11 -43 -169 -43 -213 l0
-41 103 -12 c110 -12 329 -53 387 -71 43 -14 142 -39 155 -40 5 0 -18 28 -51
63 -82 84 -160 177 -223 263 -42 59 -74 90 -84 83 -1 -1 -55 -7 -119 -14z"/>
</g>
</svg>
